<svg width="227" height="30" viewBox="0 0 227 30" fill="none" xmlns="http://www.w3.org/2000/svg">
<g clip-path="url(#clip0_422_20354)">
<path d="M69.6047 8.49731C66.5377 8.49731 63.7574 9.61394 61.7788 11.6397C59.853 13.6108 58.793 16.3062 58.793 19.2279C58.793 22.1534 59.853 24.8544 61.7788 26.8368C63.7593 28.8758 66.5396 30 69.6047 30C72.6546 30 75.4292 28.8777 77.4154 26.8368C79.3507 24.8507 80.4164 22.1477 80.4164 19.2279C80.4164 16.31 79.3507 13.6146 77.4154 11.6397C75.4311 9.61206 72.6565 8.49731 69.6047 8.49731ZM75.9121 25.4241C74.3315 27.116 72.1491 28.01 69.6047 28.01C67.047 28.01 64.8684 27.116 63.3029 25.4241C61.8335 23.8359 61.0243 21.6347 61.0243 19.2279C61.0243 14.0805 64.5534 10.4854 69.6066 10.4854C72.1548 10.4854 74.3352 11.3719 75.914 13.0525C77.406 14.6388 78.2284 16.8324 78.2284 19.2279C78.2265 21.6271 77.4041 23.8283 75.9121 25.4241Z" fill="black"/>
<path d="M55.2771 0.00561523H53.8342C53.5946 0.00561523 53.4399 0.160284 53.4399 0.399831V29.4869C53.4399 29.7265 53.5946 29.8811 53.8342 29.8811H55.2771C55.5166 29.8811 55.6713 29.7265 55.6713 29.4869V0.399831C55.6713 0.160284 55.5166 0.00561523 55.2771 0.00561523Z" fill="black"/>
<path d="M49.6033 0.00561523H48.1603C47.9208 0.00561523 47.7661 0.160284 47.7661 0.399831V29.4869C47.7661 29.7265 47.9208 29.8811 48.1603 29.8811H49.6033C49.8428 29.8811 49.9975 29.7265 49.9975 29.4869V0.399831C49.9975 0.160284 49.8428 0.00561523 49.6033 0.00561523Z" fill="black"/>
<path d="M42.4829 1.60327C41.736 1.60327 41.1267 2.19365 41.1267 2.91795C41.1267 3.67809 41.7228 4.27413 42.4829 4.27413C43.2072 4.27413 43.7976 3.66677 43.7976 2.91795C43.7995 2.19365 43.2091 1.60327 42.4829 1.60327Z" fill="black"/>
<path d="M38.6275 0H37.1053C36.8431 0 36.6376 0.122603 36.5546 0.331971L29.055 24.6545C28.972 24.9016 28.8457 25.0563 28.7231 25.0563C28.6005 25.0563 28.4741 24.9035 28.3911 24.6545L20.5784 1.49953C20.5313 1.31091 20.3408 1.16378 20.1465 1.16378H18.8639C18.63 1.16378 18.4848 1.26564 18.3942 1.49387L10.7042 24.6507C10.6023 24.9054 10.4665 25.0563 10.3402 25.0563C10.3364 25.0563 10.3345 25.0563 10.3307 25.0563C10.2119 25.0487 10.1044 24.9035 10.0384 24.6564L2.51243 0.33763C2.41812 0.103741 2.26345 0.0113172 1.96355 0.0113172H0.399887C0.245219 0.0113172 0.122616 0.0679032 0.0547126 0.169758C-0.0169629 0.277271 -0.0188491 0.428167 0.0509402 0.586608L9.22164 29.553C9.30275 29.7567 9.50834 29.8793 9.77053 29.8793H10.7325C10.9947 29.8793 11.2003 29.7567 11.2814 29.5492L19.1751 6.23012C19.2581 5.99623 19.3883 5.85853 19.5278 5.85853C19.658 5.86231 19.773 6.00189 19.8391 6.23012L27.7743 29.5549C27.8554 29.7586 28.061 29.8812 28.3232 29.8812H29.2851C29.5266 29.8812 29.7906 29.7774 29.8359 29.5492L38.9746 0.582836C39.0443 0.418736 39.0443 0.26784 38.9727 0.158441C38.9048 0.056586 38.7822 0 38.6275 0Z" fill="black"/>
<path d="M43.1658 8.49927H41.7228C41.4833 8.49927 41.3286 8.65394 41.3286 8.89348V29.487C41.3286 29.7266 41.4833 29.8812 41.7228 29.8812H43.1658C43.4053 29.8812 43.56 29.7266 43.56 29.487V8.89348C43.5581 8.65394 43.4034 8.49927 43.1658 8.49927Z" fill="black"/>
<path d="M204.025 27.9912C204.004 27.8705 203.964 27.7951 203.896 27.7554C203.804 27.7007 203.689 27.7234 203.53 27.7743C202.885 27.9761 202.455 28.012 201.789 28.012C199.658 28.012 199.658 25.8504 199.658 21.1123V10.7325C199.658 10.5722 199.747 10.4854 199.905 10.4854H203.63C203.87 10.4854 204.025 10.3307 204.025 10.0912V8.88968C204.025 8.65014 203.87 8.49547 203.63 8.49547H199.905C199.745 8.49547 199.658 8.40682 199.658 8.24838V2.52187C199.658 2.3823 199.607 2.26158 199.52 2.19179C199.449 2.13332 199.354 2.11068 199.256 2.12955L197.766 2.28987C197.542 2.33514 197.427 2.48038 197.427 2.72181V8.24838C197.427 8.4087 197.34 8.49547 197.18 8.49547H195.176C194.937 8.49547 194.782 8.65014 194.782 8.88968V10.0912C194.782 10.3307 194.937 10.4854 195.176 10.4854H197.18C197.34 10.4854 197.427 10.5741 197.427 10.7325V21.1104C197.427 21.3461 197.427 21.58 197.427 21.812C197.421 25.1582 197.415 27.8007 198.73 29.1154C199.324 29.7095 200.154 29.9981 201.267 29.9981C202.499 29.9981 203.544 29.7095 204.036 29.4228C204.208 29.2946 204.274 29.1097 204.223 28.9079L204.025 27.9912Z" fill="black"/>
<path d="M191.787 0.00561523H190.344C190.104 0.00561523 189.95 0.160284 189.95 0.399831V29.4869C189.95 29.7265 190.104 29.8811 190.344 29.8811H191.787C192.026 29.8811 192.181 29.7265 192.181 29.4869V0.399831C192.181 0.160284 192.026 0.00561523 191.787 0.00561523Z" fill="black"/>
<path d="M223.939 10.6532C222.564 9.22158 220.612 8.49728 218.137 8.49728C214.444 8.49728 211.454 10.6947 210.347 12.1697C210.264 12.2697 210.2 12.2923 210.175 12.2848C210.147 12.2735 210.117 12.2112 210.117 12.0962V0.399831C210.117 0.160284 209.962 0.00561523 209.723 0.00561523H208.28C208.04 0.00561523 207.885 0.160284 207.885 0.399831V29.4869C207.885 29.7265 208.04 29.8811 208.28 29.8811H209.723C209.962 29.8811 210.117 29.7265 210.117 29.4869V15.3555C211.213 12.579 214.521 10.4853 217.818 10.4853C222.115 10.4853 224.116 13.1222 224.116 18.7865V29.485C224.116 29.7246 224.271 29.8792 224.51 29.8792H225.953C226.193 29.8792 226.348 29.7246 226.348 29.485V18.4262C226.344 14.9292 225.535 12.3131 223.939 10.6532Z" fill="black"/>
<path d="M111.193 8.6181H109.671C109.477 8.6181 109.288 8.76522 109.241 8.95007L103.671 26.2559C103.63 26.3653 103.575 26.4332 103.528 26.4332C103.477 26.4332 103.415 26.3635 103.369 26.2559L97.358 8.90291C97.2581 8.65016 97.0845 8.61621 96.9299 8.61621H95.5265C95.2794 8.61621 95.1342 8.71429 95.0965 8.90669L89.1285 26.2522C89.0814 26.3635 89.0135 26.4332 88.9531 26.4332C88.9512 26.4332 88.9475 26.4332 88.9456 26.4332C88.8965 26.4295 88.8513 26.3653 88.823 26.2578L83.2078 8.93686C83.104 8.7275 82.9569 8.61621 82.7815 8.61621H81.2593C81.0877 8.61621 81.0028 8.68789 80.9632 8.74636C80.9047 8.83312 80.9009 8.94818 80.95 9.07267L87.9195 29.5794C87.9817 29.7115 88.0496 29.8793 88.391 29.8793H89.5529C89.7038 29.8793 89.9189 29.8492 90.0226 29.5889L96.115 12.1547C96.1414 12.0623 96.1848 12.0001 96.2263 11.9982H96.2282C96.2678 11.9982 96.3319 12.0529 96.3772 12.1604L102.505 29.5813C102.56 29.7133 102.637 29.8812 102.977 29.8812H104.139C104.292 29.8812 104.505 29.851 104.609 29.5907L111.503 9.06701C111.533 8.91612 111.516 8.79917 111.454 8.72184C111.399 8.65205 111.312 8.6181 111.193 8.6181Z" fill="black"/>
<path d="M150.924 0.162225C150.858 0.0603702 150.736 0.00378418 150.579 0.00378418H149.057C148.795 0.00378418 148.589 0.126387 148.506 0.335755L141.008 24.6545C140.925 24.9016 140.799 25.0563 140.676 25.0563C140.554 25.0563 140.427 24.9035 140.344 24.6545L132.534 1.49954C132.487 1.31092 132.296 1.1638 132.102 1.1638H130.819C130.585 1.1638 130.44 1.26565 130.349 1.49388L122.659 24.6508C122.559 24.9016 122.42 25.0563 122.295 25.0563C122.292 25.0563 122.29 25.0563 122.286 25.0563C122.167 25.0487 122.06 24.9035 121.994 24.6564L114.464 0.337641C114.37 0.103753 114.215 0.011329 113.915 0.011329H112.353C112.199 0.011329 112.076 0.067915 112.008 0.16977C111.936 0.279169 111.935 0.430065 112.002 0.588506L121.177 29.5549C121.233 29.7605 121.464 29.8812 121.726 29.8812H122.688C122.95 29.8812 123.156 29.7586 123.239 29.5511L131.132 6.23201C131.215 5.99813 131.345 5.86043 131.485 5.86043C131.615 5.86421 131.73 6.00378 131.796 6.23201L139.731 29.5568C139.797 29.7624 140.018 29.8831 140.28 29.8831H141.242C141.484 29.8831 141.748 29.7793 141.793 29.5511L150.928 0.58662C150.998 0.42252 150.998 0.271624 150.924 0.162225Z" fill="black"/>
<path d="M179.461 8.49731C176.345 8.49731 173.002 9.79691 171.723 10.6759L171.695 10.6966C171.557 10.7985 171.439 10.8871 171.578 11.1191L171.94 12.1226C171.995 12.2603 172.067 12.3414 172.159 12.3716C172.244 12.3999 172.342 12.381 172.446 12.3188C173.736 11.5699 176.807 10.4854 178.98 10.4854C180.657 10.4854 181.83 10.8023 182.671 11.4813C183.752 12.3546 184.276 13.8277 184.276 15.9818C184.276 16.1968 184.214 16.2703 184.029 16.2703C179.551 16.2911 176.075 16.9098 173.695 18.1056C171.118 19.4014 169.813 21.3838 169.813 23.9962C169.813 25.6485 170.399 27.1367 171.463 28.1855C172.667 29.3719 174.462 30 176.658 30C179.197 30 182.579 28.7966 184.042 27.3744C184.101 27.3159 184.167 27.2895 184.21 27.3065C184.253 27.3235 184.278 27.3895 184.278 27.4819V29.4851C184.278 29.7246 184.433 29.8793 184.672 29.8793H186.076C186.315 29.8793 186.47 29.7246 186.47 29.4851V17.9057C186.466 13.9352 186.466 8.49731 179.461 8.49731ZM184.276 24.9978C184.276 25.1128 184.276 25.2015 184.142 25.3034C181.75 27.3574 178.934 28.0912 177.097 28.0912C174.051 28.0912 172.082 26.452 172.082 23.917C172.082 21.7724 173.451 20.1861 176.15 19.2072C178.674 18.2923 181.828 18.1 184.029 18.1C184.189 18.1 184.276 18.1886 184.276 18.347V24.9978Z" fill="black"/>
<path d="M158.601 8.49731C155.783 8.49731 153.237 9.61394 151.43 11.6416C149.677 13.6089 148.712 16.3024 148.712 19.2279C148.712 22.3062 149.562 24.9412 151.173 26.8481C152.914 28.9098 155.483 30 158.601 30C160.766 30 162.683 29.4398 164.297 28.3345C165.718 27.3612 166.821 26.0088 167.485 24.4244C167.53 24.3093 167.532 24.2112 167.489 24.132C167.44 24.0453 167.34 23.9887 167.189 23.9641L165.833 23.7642C165.638 23.7152 165.444 23.8114 165.352 24C164.835 24.9412 162.815 28.01 158.563 28.01C155.889 28.01 153.759 26.95 152.403 24.9469C151.326 23.3549 150.943 21.497 150.943 20.3898C150.943 20.2087 151.009 20.1427 151.19 20.1427H167.659C167.898 20.1427 168.053 19.988 168.053 19.7485V19.1072C168.053 16.4665 167.298 13.8956 165.98 12.0528C164.316 9.72712 161.764 8.49731 158.601 8.49731ZM165.493 18.2735H151.228C151.068 18.2735 150.981 18.1867 150.981 18.0264C151.022 14.9764 153.472 10.4439 158.601 10.4061H158.669C160.661 10.4061 162.289 11.0192 163.507 12.2301C165.154 13.8654 165.74 16.3175 165.74 18.066C165.74 18.1943 165.646 18.2735 165.493 18.2735Z" fill="black"/>
</g>
<defs>
<clipPath id="clip0_422_20354">
<rect width="226.344" height="30" fill="white"/>
</clipPath>
</defs>
</svg>
